<svg width="1024" height="1024" viewBox="0 0 1024 1024" fill="none" xmlns="http://www.w3.org/2000/svg">
<g clip-path="url(#clip0_9555_35798)">
<path d="M0 384C0 249.587 0 182.381 26.1584 131.042C49.168 85.8834 85.8834 49.168 131.042 26.1584C182.381 0 249.587 0 384 0H640C774.413 0 841.619 0 892.958 26.1584C938.117 49.168 974.832 85.8834 997.842 131.042C1024 182.381 1024 249.587 1024 384V640C1024 774.413 1024 841.619 997.842 892.958C974.832 938.117 938.117 974.832 892.958 997.842C841.619 1024 774.413 1024 640 1024H384C249.587 1024 182.381 1024 131.042 997.842C85.8834 974.832 49.168 938.117 26.1584 892.958C0 841.619 0 774.413 0 640V384Z" fill="url(#paint0_linear_9555_35798)"/>
<path d="M226.08 1123.22H210.344V838.379L226.08 856.56V1123.22Z" fill="url(#paint1_linear_9555_35798)"/>
<path d="M226.074 781.411H793.89V1123.22H226.074V781.411Z" fill="white"/>
<g filter="url(#filter0_i_9555_35798)">
<path d="M257.549 945.65C257.549 912.513 284.412 885.65 317.549 885.65H371.959C405.096 885.65 431.959 912.513 431.959 945.65V1123.22H257.549V945.65Z" fill="#F68524"/>
</g>
<g filter="url(#filter1_i_9555_35798)">
<path d="M509.984 961.092C509.984 927.955 536.847 901.092 569.984 901.092H678.908C712.045 901.092 738.908 927.955 738.908 961.092V991.523C738.908 1024.66 712.045 1051.52 678.908 1051.52H569.984C536.847 1051.52 509.984 1024.66 509.984 991.523V961.092Z" fill="#F68524"/>
</g>
<g filter="url(#filter2_d_9555_35798)">
<rect x="525.734" y="916.842" width="197.423" height="118.931" rx="32.25" stroke="white" stroke-width="31.5" shape-rendering="crispEdges"/>
</g>
<g filter="url(#filter3_d_9555_35798)">
<path d="M257.549 933.65C257.549 907.141 279.039 885.65 305.549 885.65H383.959C410.468 885.65 431.959 907.141 431.959 933.65V1123.22H257.549V933.65Z" fill="#F68524"/>
<path d="M305.549 899.15H383.959C403.013 899.15 418.459 914.597 418.459 933.65V1109.72H271.049V933.65C271.049 914.597 286.495 899.15 305.549 899.15Z" stroke="white" stroke-width="27"/>
</g>
<path d="M400.176 1008.07C400.176 1013.77 395.558 1018.39 389.857 1018.39C384.161 1018.39 379.543 1013.77 379.543 1008.07C379.543 1002.38 384.161 997.754 389.857 997.754C395.558 997.754 400.176 1002.38 400.176 1008.07Z" fill="url(#paint2_linear_9555_35798)"/>
<path d="M210.344 857.649L584.817 1186.25H809.632V781.411H210.344V857.649Z" fill="url(#paint3_linear_9555_35798)"/>
<path d="M793.893 1123.22H809.629V838.379L793.893 856.56V1123.22Z" fill="url(#paint4_linear_9555_35798)"/>
<path d="M242.029 857.934C205.045 857.934 175.07 830.228 175.07 796.049V760.098H308.982V796.049C308.982 830.228 279.007 857.934 242.029 857.934Z" fill="url(#paint5_linear_9555_35798)"/>
<path d="M375.933 857.934C338.955 857.934 308.98 830.228 308.98 796.049V760.098H442.892V796.049C442.892 830.228 412.911 857.934 375.933 857.934Z" fill="url(#paint6_linear_9555_35798)"/>
<path d="M509.845 857.934C472.867 857.934 442.893 830.228 442.893 796.049V760.098H576.798V796.049C576.798 830.228 546.823 857.934 509.845 857.934Z" fill="url(#paint7_linear_9555_35798)"/>
<path d="M643.76 857.934C606.782 857.934 576.801 830.228 576.801 796.049V760.098H710.713V796.049C710.713 830.228 680.738 857.934 643.76 857.934Z" fill="url(#paint8_linear_9555_35798)"/>
<path d="M777.66 857.934C740.682 857.934 710.707 830.228 710.707 796.049V760.098H844.619V796.049C844.612 830.228 814.638 857.934 777.66 857.934Z" fill="url(#paint9_linear_9555_35798)"/>
<path d="M730.079 623.092C723.749 615.517 713.975 611.083 703.618 611.083H316.075C305.718 611.083 295.944 615.517 289.608 623.092L175.07 760.099H844.617L730.079 623.092Z" fill="url(#paint10_linear_9555_35798)"/>
<path d="M730.073 623.092C723.743 615.517 713.97 611.083 703.613 611.083H399.324C404.583 617.686 410.515 623.81 417.024 629.352L558.478 760.099H844.611L730.073 623.092Z" fill="url(#paint11_linear_9555_35798)"/>
<path d="M642.024 623.092C638.221 615.517 632.36 611.083 626.139 611.083H393.543C387.328 611.083 381.467 615.517 377.664 623.092L308.922 760.099H710.766L642.024 623.092Z" fill="url(#paint12_linear_9555_35798)"/>
<path d="M661.842 855.629C690.028 848.332 710.71 824.432 710.71 796.05V760.099H710.768L642.026 623.092C638.223 615.517 632.355 611.083 626.141 611.083H470.762C476.021 617.686 461.444 634.251 467.954 639.794L558.483 760.099H576.798V777.028L661.842 855.629Z" fill="url(#paint13_linear_9555_35798)"/>
<path d="M553.887 623.092C552.624 615.517 550.668 611.083 548.596 611.083H471.088C469.016 611.083 467.06 615.517 465.79 623.092L442.883 760.099H576.795L553.887 623.092Z" fill="url(#paint14_linear_9555_35798)"/>
<path d="M295.576 617.779H279.84V574.184C279.84 570.212 280.918 566.208 283.635 563.31C289.456 557.101 296.248 555.01 309.364 554.75H713.315C725.09 555.561 731.365 557.477 737.147 567.401C738.313 569.402 738.813 571.713 738.813 574.029V618.991H725.393C722.562 615.377 720.252 614.665 715.328 614.749H309.364C302.789 614.749 298.878 614.274 295.576 617.779Z" fill="url(#paint15_linear_9555_35798)"/>
<path d="M138.768 330.455L248.716 323.344C250.581 323.261 252.403 323.912 253.793 325.157C255.182 326.403 256.027 328.144 256.147 330.006C256.267 331.868 255.652 333.703 254.433 335.117C253.215 336.53 251.491 337.409 249.631 337.565C248.026 337.677 140.204 330.463 138.776 330.455H138.768Z" fill="white"/>
<path d="M106 411.464L215.949 404.353C216.892 404.275 217.841 404.386 218.741 404.679C219.641 404.972 220.474 405.442 221.19 406.06C221.907 406.678 222.493 407.433 222.915 408.28C223.336 409.127 223.585 410.05 223.646 410.994C223.708 411.939 223.58 412.886 223.272 413.78C222.963 414.675 222.479 415.499 221.848 416.205C221.218 416.91 220.453 417.483 219.598 417.89C218.744 418.297 217.817 418.53 216.872 418.574C215.267 418.687 107.445 411.472 106.008 411.464H106Z" fill="white"/>
<path d="M148.221 369.426L232.946 362.316C233.879 362.237 234.819 362.343 235.712 362.628C236.605 362.913 237.433 363.371 238.149 363.975C238.864 364.58 239.454 365.32 239.884 366.153C240.314 366.985 240.575 367.894 240.654 368.828C240.732 369.762 240.626 370.702 240.342 371.595C240.057 372.488 239.599 373.315 238.994 374.031C238.389 374.747 237.65 375.337 236.817 375.767C235.984 376.197 235.075 376.458 234.141 376.537C233.743 376.569 233.343 376.569 232.946 376.537L148.221 369.426Z" fill="white"/>
<path d="M368.384 361.192C363.248 366.511 356.749 370.317 349.597 372.195C356.22 373.752 361.381 376.93 365.078 381.729C368.812 386.648 370.767 392.689 370.623 398.863C370.617 401.016 370.421 403.165 370.037 405.284C368.095 416.958 362.515 426.107 353.296 432.731C344.078 439.354 332.139 442.666 317.479 442.666H249.535L273.868 305.431H339.677C352.143 305.431 361.811 307.93 368.681 312.927C375.551 317.924 378.991 325.032 379.002 334.25C378.996 336.534 378.8 338.813 378.416 341.064C377.213 348.643 373.711 355.669 368.384 361.192ZM332.27 397.114C332.27 393.871 331.2 391.373 329.059 389.618C326.919 387.863 323.773 386.98 319.622 386.97H297.616L293.338 412.089H315.529C324.999 412.089 330.515 407.999 332.077 399.818C332.224 398.925 332.289 398.019 332.27 397.114ZM338.305 345.133C338.305 338.905 334.217 335.791 326.042 335.791H306.781L302.495 360.124H321.756C331.237 360.124 336.689 356.112 338.112 348.086C338.266 347.11 338.33 346.121 338.305 345.133Z" fill="white" stroke="white" stroke-linecap="round" stroke-linejoin="round"/>
<path d="M429.99 333.448L410.729 442.666H372.367L391.837 333.448H429.99ZM398.747 318.85C397.079 317.446 395.75 315.685 394.856 313.696C393.963 311.708 393.529 309.544 393.587 307.365C393.578 303.255 394.766 299.231 397.005 295.785C399.324 292.166 402.543 289.213 406.347 287.213C410.451 285.036 415.04 283.932 419.685 284.003C425.646 284.003 430.349 285.528 433.794 288.578C435.473 290.037 436.806 291.851 437.699 293.888C438.591 295.926 439.02 298.136 438.954 300.359C438.965 304.441 437.774 308.435 435.528 311.844C433.176 315.421 429.916 318.31 426.082 320.214C421.988 322.308 417.446 323.377 412.848 323.328C406.887 323.328 402.187 321.835 398.747 318.85Z" fill="white" stroke="white" stroke-linecap="round" stroke-linejoin="round"/>
<path d="M494.235 336.57C500.479 333.522 507.352 331.988 514.299 332.092C525.722 332.092 534.903 335.856 541.842 343.384C548.782 350.912 552.26 361.23 552.276 374.338C552.243 378.909 551.854 383.47 551.112 387.981C549.036 399.27 545.205 409.168 539.619 417.675C534.034 426.182 527.319 432.704 519.476 437.241C511.959 441.69 503.387 444.043 494.653 444.055C487.253 444.055 481.122 442.562 476.258 439.577C471.546 436.777 467.834 432.565 465.649 427.538L453.771 494.896H415.586L444.012 333.504H482.165L479.444 348.697C483.379 343.573 488.44 339.423 494.235 336.57ZM512.734 382.315C512.734 376.997 511.209 372.845 508.16 369.86C505.11 366.874 501.183 365.381 496.378 365.381C490.798 365.381 485.715 367.393 481.13 371.417C476.545 375.44 473.65 380.956 472.446 387.965C472.071 389.757 471.874 391.583 471.86 393.414C471.86 398.866 473.385 403.117 476.435 406.167C479.485 409.216 483.409 410.741 488.208 410.741C493.926 410.739 499.428 408.552 503.585 404.626C508.128 400.533 510.982 394.985 512.148 387.981C512.532 386.117 512.728 384.219 512.734 382.315Z" fill="white" stroke="white" stroke-linecap="round" stroke-linejoin="round"/>
<path d="M674.689 366.176C669.55 371.492 663.052 375.298 655.901 377.178C662.525 378.735 667.685 381.913 671.382 386.713C675.112 391.625 677.066 397.657 676.928 403.823C676.922 405.976 676.726 408.125 676.342 410.243C674.4 421.923 668.82 431.072 659.601 437.69C650.382 444.309 638.443 447.618 623.783 447.618H555.84L580.173 310.383H645.982C658.437 310.383 668.105 312.881 674.986 317.879C681.866 322.876 685.307 329.981 685.307 339.194C685.301 341.48 685.105 343.762 684.721 346.016C683.524 353.606 680.022 360.644 674.689 366.176ZM638.574 402.097C638.574 398.855 637.504 396.357 635.364 394.602C633.224 392.847 630.075 391.969 625.918 391.969H603.92L599.643 417.089H621.833C631.303 417.089 636.819 412.999 638.382 404.818C638.53 403.919 638.594 403.008 638.574 402.097ZM644.61 350.117C644.61 343.889 640.522 340.775 632.347 340.775H613.085L608.808 365.108H628.069C637.55 365.108 643.002 361.096 644.425 353.07C644.576 352.093 644.638 351.105 644.61 350.117Z" fill="#FBBA00"/>
<path d="M736.306 338.432L717.045 447.65H678.707L698.177 338.432H736.306ZM705.063 323.834C703.393 322.428 702.062 320.664 701.168 318.673C700.275 316.682 699.842 314.515 699.902 312.333C699.888 308.223 701.073 304.198 703.313 300.752C705.629 297.132 708.849 294.178 712.655 292.181C716.759 290.004 721.347 288.899 725.993 288.971C731.959 288.971 736.662 290.496 740.102 293.546C741.78 295.005 743.114 296.819 744.007 298.856C744.899 300.893 745.328 303.104 745.262 305.327C745.28 309.406 744.097 313.4 741.859 316.811C739.502 320.382 736.244 323.267 732.413 325.174C728.319 327.268 723.778 328.337 719.179 328.288C713.208 328.304 708.503 326.819 705.063 323.834Z" fill="#FBBA00"/>
<path d="M800.546 341.554C806.789 338.506 813.663 336.972 820.61 337.076C832.033 337.076 841.214 340.84 848.153 348.368C855.092 355.896 858.57 366.214 858.586 379.322C858.554 383.893 858.164 388.455 857.422 392.965C855.341 404.254 851.51 414.153 845.93 422.659C840.35 431.166 833.635 437.688 825.786 442.225C818.27 446.675 809.698 449.028 800.963 449.039C793.564 449.039 787.43 447.546 782.561 444.561C777.852 441.757 774.141 437.547 771.951 432.523L760.082 499.88H721.896L750.323 338.489H788.476L785.755 353.681C789.689 348.557 794.75 344.408 800.546 341.554ZM819.005 387.299C819.005 381.976 817.48 377.824 814.43 374.844C811.38 371.864 807.453 370.371 802.649 370.366C797.074 370.366 791.991 372.377 787.4 376.401C782.81 380.424 779.921 385.94 778.733 392.949C778.363 394.743 778.17 396.568 778.155 398.399C778.155 403.845 779.68 408.096 782.729 411.151C785.779 414.206 789.704 415.731 794.503 415.726C800.226 415.72 805.73 413.526 809.888 409.594C814.43 405.501 817.284 399.953 818.451 392.949C818.836 391.091 819.035 389.198 819.045 387.299H819.005Z" fill="#FBBA00"/>
</g>
<defs>
<filter id="filter0_i_9555_35798" x="257.549" y="885.65" width="174.41" height="243.57" filterUnits="userSpaceOnUse" color-interpolation-filters="sRGB">
<feFlood flood-opacity="0" result="BackgroundImageFix"/>
<feBlend mode="normal" in="SourceGraphic" in2="BackgroundImageFix" result="shape"/>
<feColorMatrix in="SourceAlpha" type="matrix" values="0 0 0 0 0 0 0 0 0 0 0 0 0 0 0 0 0 0 127 0" result="hardAlpha"/>
<feOffset dy="6"/>
<feGaussianBlur stdDeviation="18"/>
<feComposite in2="hardAlpha" operator="arithmetic" k2="-1" k3="1"/>
<feColorMatrix type="matrix" values="0 0 0 0 0 0 0 0 0 0 0 0 0 0 0 0 0 0 0.25 0"/>
<feBlend mode="normal" in2="shape" result="effect1_innerShadow_9555_35798"/>
</filter>
<filter id="filter1_i_9555_35798" x="509.984" y="901.092" width="228.924" height="150.431" filterUnits="userSpaceOnUse" color-interpolation-filters="sRGB">
<feFlood flood-opacity="0" result="BackgroundImageFix"/>
<feBlend mode="normal" in="SourceGraphic" in2="BackgroundImageFix" result="shape"/>
<feColorMatrix in="SourceAlpha" type="matrix" values="0 0 0 0 0 0 0 0 0 0 0 0 0 0 0 0 0 0 127 0" result="hardAlpha"/>
<feOffset/>
<feGaussianBlur stdDeviation="55.5"/>
<feComposite in2="hardAlpha" operator="arithmetic" k2="-1" k3="1"/>
<feColorMatrix type="matrix" values="0 0 0 0 0 0 0 0 0 0 0 0 0 0 0 0 0 0 0.25 0"/>
<feBlend mode="normal" in2="shape" result="effect1_innerShadow_9555_35798"/>
</filter>
<filter id="filter2_d_9555_35798" x="473.984" y="871.092" width="300.924" height="222.431" filterUnits="userSpaceOnUse" color-interpolation-filters="sRGB">
<feFlood flood-opacity="0" result="BackgroundImageFix"/>
<feColorMatrix in="SourceAlpha" type="matrix" values="0 0 0 0 0 0 0 0 0 0 0 0 0 0 0 0 0 0 127 0" result="hardAlpha"/>
<feOffset dy="6"/>
<feGaussianBlur stdDeviation="18"/>
<feComposite in2="hardAlpha" operator="out"/>
<feColorMatrix type="matrix" values="0 0 0 0 0 0 0 0 0 0 0 0 0 0 0 0 0 0 0.25 0"/>
<feBlend mode="normal" in2="BackgroundImageFix" result="effect1_dropShadow_9555_35798"/>
<feBlend mode="normal" in="SourceGraphic" in2="effect1_dropShadow_9555_35798" result="shape"/>
</filter>
<filter id="filter3_d_9555_35798" x="86.5488" y="714.65" width="516.41" height="579.57" filterUnits="userSpaceOnUse" color-interpolation-filters="sRGB">
<feFlood flood-opacity="0" result="BackgroundImageFix"/>
<feColorMatrix in="SourceAlpha" type="matrix" values="0 0 0 0 0 0 0 0 0 0 0 0 0 0 0 0 0 0 127 0" result="hardAlpha"/>
<feOffset/>
<feGaussianBlur stdDeviation="85.5"/>
<feComposite in2="hardAlpha" operator="out"/>
<feColorMatrix type="matrix" values="0 0 0 0 0 0 0 0 0 0 0 0 0 0 0 0 0 0 0.25 0"/>
<feBlend mode="normal" in2="BackgroundImageFix" result="effect1_dropShadow_9555_35798"/>
<feBlend mode="normal" in="SourceGraphic" in2="effect1_dropShadow_9555_35798" result="shape"/>
</filter>
<linearGradient id="paint0_linear_9555_35798" x1="512" y1="0" x2="512" y2="1285" gradientUnits="userSpaceOnUse">
<stop offset="0.502973" stop-color="#C7001A"/>
<stop offset="1" stop-color="#61000D"/>
</linearGradient>
<linearGradient id="paint1_linear_9555_35798" x1="226.08" y1="988.678" x2="210.344" y2="988.678" gradientUnits="userSpaceOnUse">
<stop stop-color="white"/>
<stop offset="1" stop-color="#A5A5A5"/>
</linearGradient>
<linearGradient id="paint2_linear_9555_35798" x1="401.896" y1="1024.84" x2="380.826" y2="999.049" gradientUnits="userSpaceOnUse">
<stop stop-color="#F68524"/>
<stop offset="1" stop-color="#FBBA00"/>
</linearGradient>
<linearGradient id="paint3_linear_9555_35798" x1="542.57" y1="994.773" x2="495.747" y2="667.724" gradientUnits="userSpaceOnUse">
<stop stop-color="#E58200" stop-opacity="0"/>
<stop offset="0.0396" stop-color="#E27F04" stop-opacity="0.039216"/>
<stop offset="0.4671" stop-color="#C15D2F" stop-opacity="0.466667"/>
<stop offset="0.8016" stop-color="#AD4949" stop-opacity="0.8"/>
<stop offset="1" stop-color="#A64153"/>
</linearGradient>
<linearGradient id="paint4_linear_9555_35798" x1="793.893" y1="988.678" x2="809.629" y2="988.678" gradientUnits="userSpaceOnUse">
<stop stop-color="white"/>
<stop offset="1" stop-color="#A5A5A5"/>
</linearGradient>
<linearGradient id="paint5_linear_9555_35798" x1="195.001" y1="740.75" x2="298.054" y2="859.44" gradientUnits="userSpaceOnUse">
<stop stop-color="#FB0021"/>
<stop offset="0.1596" stop-color="#FB0021"/>
<stop offset="0.4266" stop-color="#C7001A"/>
<stop offset="0.7662" stop-color="#C7001A"/>
<stop offset="1" stop-color="#940013"/>
</linearGradient>
<linearGradient id="paint6_linear_9555_35798" x1="349.269" y1="766.242" x2="434.084" y2="858.003" gradientUnits="userSpaceOnUse">
<stop stop-color="#FFFCF8"/>
<stop offset="0.1875" stop-color="#FAF8F6"/>
<stop offset="0.4041" stop-color="#ECEEF2"/>
<stop offset="0.6353" stop-color="#D5DCEA"/>
<stop offset="0.875" stop-color="#B5C4DF"/>
<stop offset="1" stop-color="#A1B5D8"/>
</linearGradient>
<linearGradient id="paint7_linear_9555_35798" x1="483.179" y1="766.242" x2="567.994" y2="858.003" gradientUnits="userSpaceOnUse">
<stop stop-color="#FB0021"/>
<stop offset="0.1596" stop-color="#C7001A"/>
<stop offset="0.4266" stop-color="#C7001A"/>
<stop offset="0.7662" stop-color="#940013"/>
<stop offset="1" stop-color="#940013"/>
</linearGradient>
<linearGradient id="paint8_linear_9555_35798" x1="617.092" y1="766.242" x2="701.907" y2="858.003" gradientUnits="userSpaceOnUse">
<stop stop-color="#FFFCF8"/>
<stop offset="0.1875" stop-color="#FAF8F6"/>
<stop offset="0.4041" stop-color="#ECEEF2"/>
<stop offset="0.6353" stop-color="#D5DCEA"/>
<stop offset="0.875" stop-color="#B5C4DF"/>
<stop offset="1" stop-color="#A1B5D8"/>
</linearGradient>
<linearGradient id="paint9_linear_9555_35798" x1="750.996" y1="766.242" x2="835.811" y2="858.003" gradientUnits="userSpaceOnUse">
<stop stop-color="#FB0021"/>
<stop offset="0.1596" stop-color="#C7001A"/>
<stop offset="0.4266" stop-color="#C7001A"/>
<stop offset="0.7662" stop-color="#940013"/>
<stop offset="1" stop-color="#940013"/>
</linearGradient>
<linearGradient id="paint10_linear_9555_35798" x1="309.001" y1="633.5" x2="711.301" y2="988.082" gradientUnits="userSpaceOnUse">
<stop stop-color="#FB0021"/>
<stop offset="0.1596" stop-color="#C7001A"/>
<stop offset="0.4266" stop-color="#C7001A"/>
<stop offset="0.7662" stop-color="#940013"/>
<stop offset="1" stop-color="#940013"/>
</linearGradient>
<linearGradient id="paint11_linear_9555_35798" x1="786.774" y1="807.024" x2="504.101" y2="538.132" gradientUnits="userSpaceOnUse">
<stop stop-color="#E58200" stop-opacity="0"/>
<stop offset="0.4384" stop-color="#C4602C" stop-opacity="0.439216"/>
<stop offset="0.7953" stop-color="#AE4948" stop-opacity="0.796078"/>
<stop offset="1" stop-color="#A64153"/>
</linearGradient>
<linearGradient id="paint12_linear_9555_35798" x1="509.843" y1="639.016" x2="509.843" y2="760.485" gradientUnits="userSpaceOnUse">
<stop stop-color="#FFFCF8"/>
<stop offset="0.1875" stop-color="#FAF8F6"/>
<stop offset="0.4041" stop-color="#ECEEF2"/>
<stop offset="0.6353" stop-color="#D5DCEA"/>
<stop offset="0.875" stop-color="#B5C4DF"/>
<stop offset="1" stop-color="#A1B5D8"/>
</linearGradient>
<linearGradient id="paint13_linear_9555_35798" x1="674.566" y1="759.125" x2="353.792" y2="412.082" gradientUnits="userSpaceOnUse">
<stop stop-color="#A1B5D8" stop-opacity="0"/>
<stop offset="0.0343" stop-color="#9FB3D5" stop-opacity="0.035294"/>
<stop offset="0.4515" stop-color="#8898AF" stop-opacity="0.45098"/>
<stop offset="0.788" stop-color="#798898" stop-opacity="0.788235"/>
<stop offset="1" stop-color="#748290"/>
</linearGradient>
<linearGradient id="paint14_linear_9555_35798" x1="509.841" y1="639.016" x2="509.841" y2="760.485" gradientUnits="userSpaceOnUse">
<stop stop-color="#FB0021"/>
<stop offset="0.1596" stop-color="#C7001A"/>
<stop offset="0.4266" stop-color="#C7001A"/>
<stop offset="0.7662" stop-color="#940013"/>
<stop offset="1" stop-color="#940013"/>
</linearGradient>
<linearGradient id="paint15_linear_9555_35798" x1="509.327" y1="609.294" x2="509.327" y2="616.567" gradientUnits="userSpaceOnUse">
<stop stop-color="#EDEDED"/>
<stop offset="1" stop-color="#999999"/>
</linearGradient>
<clipPath id="clip0_9555_35798">
<path d="M0 384C0 249.587 0 182.381 26.1584 131.042C49.168 85.8834 85.8834 49.168 131.042 26.1584C182.381 0 249.587 0 384 0H640C774.413 0 841.619 0 892.958 26.1584C938.117 49.168 974.832 85.8834 997.842 131.042C1024 182.381 1024 249.587 1024 384V640C1024 774.413 1024 841.619 997.842 892.958C974.832 938.117 938.117 974.832 892.958 997.842C841.619 1024 774.413 1024 640 1024H384C249.587 1024 182.381 1024 131.042 997.842C85.8834 974.832 49.168 938.117 26.1584 892.958C0 841.619 0 774.413 0 640V384Z" fill="white"/>
</clipPath>
</defs>
</svg>
