<svg width="64" height="53" viewBox="0 0 64 53" fill="none" xmlns="http://www.w3.org/2000/svg">
<g clip-path="url(#clip0_1487_14223)">
<path d="M4.48406 6.35522L19.5243 5.20502C19.6922 5.17561 19.8644 5.1833 20.029 5.22754C20.1936 5.27178 20.3464 5.35151 20.4769 5.46111C20.6074 5.57072 20.7123 5.70756 20.7843 5.86202C20.8563 6.01648 20.8936 6.18482 20.8936 6.35522C20.8936 6.52563 20.8563 6.69397 20.7843 6.84843C20.7123 7.00289 20.6074 7.13973 20.4769 7.24933C20.3464 7.35894 20.1936 7.43866 20.029 7.48291C19.8644 7.52715 19.6922 7.53484 19.5243 7.50543L4.48406 6.35522Z" fill="#E30613"/>
<path d="M0 17.4397L15.0432 16.2895C15.211 16.2601 15.3833 16.2678 15.5479 16.312C15.7124 16.3563 15.8653 16.436 15.9958 16.5456C16.1263 16.6552 16.2312 16.792 16.3031 16.9465C16.3751 17.1009 16.4124 17.2693 16.4124 17.4397C16.4124 17.6101 16.3751 17.7784 16.3031 17.9329C16.2312 18.0874 16.1263 18.2242 15.9958 18.3338C15.8653 18.4434 15.7124 18.5231 15.5479 18.5674C15.3833 18.6116 15.211 18.6193 15.0432 18.5899L0 17.4397Z" fill="#E30613"/>
<path d="M5.77731 11.677L17.3699 10.5356C17.5372 10.5075 17.7087 10.5163 17.8723 10.5613C18.0359 10.6062 18.1877 10.6863 18.3173 10.7959C18.4468 10.9055 18.5508 11.0421 18.6222 11.196C18.6936 11.3499 18.7306 11.5176 18.7306 11.6873C18.7306 11.8569 18.6936 12.0246 18.6222 12.1785C18.5508 12.3324 18.4468 12.469 18.3173 12.5786C18.1877 12.6882 18.0359 12.7683 17.8723 12.8132C17.7087 12.8582 17.5372 12.867 17.3699 12.8389L5.77731 11.677Z" fill="#E30613"/>
<path d="M7.49095 30.7634L22.5341 29.6132C22.702 29.5838 22.8742 29.5915 23.0388 29.6357C23.2034 29.68 23.3563 29.7597 23.4867 29.8693C23.6172 29.9789 23.7221 30.1158 23.7941 30.2702C23.8661 30.4247 23.9034 30.593 23.9034 30.7634C23.9034 30.9338 23.8661 31.1022 23.7941 31.2566C23.7221 31.4111 23.6172 31.5479 23.4867 31.6575C23.3563 31.7671 23.2034 31.8469 23.0388 31.8911C22.8742 31.9353 22.702 31.943 22.5341 31.9136L7.49095 30.7634Z" fill="#E30613"/>
<path d="M3.00981 41.8455L18.0501 40.6953C18.2174 40.6672 18.3889 40.676 18.5525 40.7209C18.7161 40.7659 18.8679 40.846 18.9975 40.9556C19.127 41.0652 19.231 41.2017 19.3024 41.3557C19.3738 41.5096 19.4108 41.6772 19.4108 41.8469C19.4108 42.0166 19.3738 42.1842 19.3024 42.3382C19.231 42.4921 19.127 42.6286 18.9975 42.7382C18.8679 42.8479 18.7161 42.9279 18.5525 42.9729C18.3889 43.0179 18.2174 43.0266 18.0501 42.9986L3.00981 41.8455Z" fill="#E30613"/>
<path d="M8.78712 36.0945L20.3768 34.9443C20.5446 34.9149 20.7169 34.9226 20.8814 34.9668C21.046 35.011 21.1989 35.0908 21.3294 35.2004C21.4598 35.31 21.5648 35.4468 21.6367 35.6013C21.7087 35.7557 21.746 35.9241 21.746 36.0945C21.746 36.2649 21.7087 36.4332 21.6367 36.5877C21.5648 36.7421 21.4598 36.879 21.3294 36.9886C21.1989 37.0982 21.046 37.1779 20.8814 37.2222C20.7169 37.2664 20.5446 37.2741 20.3768 37.2447L8.78712 36.0945Z" fill="#E30613"/>
<path d="M35.9075 10.5622C35.2047 11.2887 34.3162 11.8087 33.3385 12.0656C34.1761 12.2366 34.926 12.6989 35.455 13.3706C35.9651 14.0407 36.2327 14.864 36.214 15.706C36.2131 15.9997 36.1867 16.2927 36.1352 16.5818C36.0298 17.3313 35.7721 18.0512 35.3779 18.6974C34.9838 19.3435 34.4617 19.9022 33.8435 20.3389C32.5824 21.2439 30.9486 21.6964 28.942 21.6964H19.6382L22.9662 2.91943H31.9693C33.6742 2.91943 34.9976 3.26099 35.9396 3.94411C36.4002 4.27402 36.7708 4.71403 37.0176 5.22397C37.2644 5.7339 37.3795 6.29754 37.3526 6.86342C37.3508 7.17555 37.3235 7.48701 37.2708 7.79468C37.1121 8.83551 36.636 9.80199 35.9075 10.5622ZM30.9593 15.4725C30.9706 15.2791 30.9367 15.0858 30.8602 14.9079C30.7837 14.73 30.6666 14.5725 30.5185 14.4478C30.1424 14.1833 29.6867 14.0565 29.2281 14.0887H26.2183L25.6315 17.516H28.6676C29.9638 17.516 30.7189 16.9564 30.933 15.8374C30.9526 15.7168 30.9614 15.5946 30.9593 15.4725ZM31.7854 8.36102C31.7854 7.50859 31.2259 7.08237 30.1068 7.08237H27.4795L26.8956 10.4133H29.523C30.8191 10.4133 31.5645 9.86252 31.7592 8.76097C31.7799 8.6297 31.7887 8.49681 31.7854 8.36394V8.36102Z" fill="#E30613"/>
<path d="M44.3297 6.76689L41.7023 21.7079H36.4476L39.1187 6.76689H44.3297ZM40.0558 4.76716C39.8293 4.57705 39.6483 4.3386 39.526 4.06933C39.4038 3.80007 39.3434 3.50683 39.3494 3.21117C39.3473 2.64896 39.5085 2.09826 39.8135 1.62598C40.1324 1.13337 40.5727 0.731203 41.0922 0.458259C41.6508 0.153706 42.2776 -0.00399964 42.9138 -7.22194e-05C43.6132 -0.0388058 44.302 0.183862 44.8464 0.62466C45.076 0.824346 45.2584 1.07244 45.3805 1.35109C45.5027 1.62973 45.5616 1.932 45.5529 2.23612C45.5551 2.79511 45.3926 3.34237 45.0858 3.80963C44.7646 4.30295 44.317 4.70115 43.7896 4.96275C43.2296 5.249 42.6086 5.39525 41.9797 5.38897C41.2838 5.42466 40.5991 5.20336 40.0558 4.76716Z" fill="#E30613"/>
<path d="M53.1314 7.1933C53.9853 6.77623 54.9254 6.56621 55.8756 6.58025C57.4325 6.58025 58.6888 7.09502 59.6444 8.12456C60.6 9.15411 61.0749 10.5661 61.069 12.3605C61.0647 12.9846 61.011 13.6074 60.9085 14.223C60.6625 15.6691 60.1284 17.0511 59.3379 18.2867C58.6414 19.3824 57.6975 20.2993 56.582 20.9637C55.5495 21.5743 54.3718 21.8959 53.1723 21.8949C52.2928 21.9286 51.4213 21.7163 50.6558 21.2819C50.0079 20.8993 49.4971 20.3222 49.1962 19.6325L47.5847 28.8458H42.3592L46.2477 6.76709H51.4674L51.0879 8.84271C51.6327 8.14259 52.3321 7.57805 53.1314 7.1933ZM55.6625 13.4523C55.6806 13.1402 55.6343 12.8278 55.5263 12.5345C55.4183 12.2411 55.251 11.9732 55.0348 11.7474C54.8211 11.5423 54.5683 11.3824 54.2914 11.277C54.0146 11.1717 53.7193 11.1232 53.4233 11.1344C52.6426 11.1384 51.8921 11.4365 51.3214 11.9693C50.67 12.5586 50.2499 13.3607 50.1362 14.2318C50.0859 14.4778 50.0595 14.728 50.0574 14.9791C50.0369 15.2982 50.0817 15.6181 50.1891 15.9193C50.2965 16.2205 50.4643 16.4966 50.6821 16.7307C50.8938 16.9395 51.146 17.1029 51.4231 17.2108C51.7002 17.3188 51.9964 17.369 52.2936 17.3583C53.0769 17.3579 53.8303 17.057 54.3984 16.5176C55.0415 15.9181 55.4546 15.1126 55.5661 14.2405C55.622 13.9815 55.6504 13.7173 55.6508 13.4523H55.6625Z" fill="#E30613"/>
<path d="M38.8414 34.1765C38.1396 34.9049 37.2508 35.4261 36.2724 35.6828C37.11 35.8538 37.8599 36.3162 38.3889 36.9878C38.8978 37.6585 39.1653 38.4815 39.1479 39.3232C39.1468 39.6169 39.1205 39.9099 39.0691 40.199C38.9641 40.9495 38.7072 41.6708 38.3142 42.3188C37.9212 42.9667 37.4003 43.5278 36.7833 43.9678C35.5221 44.8728 33.8883 45.3253 31.8818 45.3253H22.5808L25.9089 26.5454H34.912C36.6169 26.5454 37.9403 26.8879 38.8823 27.573C39.3425 27.9031 39.7127 28.3432 39.959 28.8531C40.2053 29.3631 40.3199 29.9267 40.2923 30.4923C40.2914 30.8044 40.2651 31.1158 40.2135 31.4236C40.0487 32.46 39.5698 33.4209 38.8414 34.1765ZM33.9019 39.0926C33.9126 38.8994 33.8784 38.7063 33.8019 38.5285C33.7254 38.3507 33.6088 38.193 33.4611 38.0679C33.0861 37.8011 32.6299 37.6731 32.1708 37.7059H29.1581L28.5742 41.1419H31.6103C32.9064 41.1419 33.6606 40.5834 33.8727 39.4663C33.8941 39.3429 33.9039 39.2178 33.9019 39.0926ZM34.7398 31.9812C34.7398 31.1287 34.1812 30.7025 33.0641 30.7025H30.4367L29.8528 34.0305H32.4802C33.7764 34.0305 34.5218 33.4797 34.7164 32.3782C34.7362 32.2468 34.744 32.1139 34.7398 31.9812Z" fill="#E30613"/>
<path d="M47.2724 30.3813L44.645 45.3253H39.3902L42.038 30.3813H47.2724Z" fill="#E30613"/>
<path d="M56.0507 30.8076C56.9045 30.3902 57.8447 30.1802 58.7949 30.1945C60.3518 30.1945 61.6081 30.7103 62.5637 31.7418C63.5193 32.7733 63.9942 34.1843 63.9883 35.9748C63.9841 36.5998 63.9304 37.2236 63.8278 37.8402C63.5824 39.2856 63.0482 40.6667 62.2572 41.901C61.5622 42.9989 60.6167 43.9163 59.4984 44.578C58.4706 45.1874 57.2982 45.51 56.1033 45.5121C55.2238 45.5458 54.3523 45.3335 53.5868 44.8991C52.9387 44.5155 52.4279 43.9373 52.1272 43.2468L50.5011 52.463H45.3018L49.1903 30.3814H54.4101L54.0364 32.4599C54.5736 31.7633 55.2625 31.1982 56.0507 30.8076ZM58.5934 37.0753C58.6113 36.7633 58.5647 36.451 58.4568 36.1577C58.3488 35.8644 58.1817 35.5965 57.9658 35.3705C57.7518 35.1612 57.4977 34.9974 57.2188 34.8891C56.9398 34.7807 56.6418 34.7299 56.3427 34.7399C55.5677 34.7445 54.8224 35.038 54.2524 35.5631C53.601 36.1537 53.1809 36.9567 53.0672 37.8285C53.0168 38.0735 52.9904 38.3228 52.9884 38.573C52.9684 38.892 53.0134 39.2118 53.1208 39.5129C53.2282 39.814 53.3957 40.0901 53.6131 40.3245C53.825 40.533 54.0772 40.6959 54.3543 40.8034C54.6314 40.9108 54.9276 40.9604 55.2246 40.9493C56.0076 40.9499 56.761 40.65 57.3294 40.1114C57.9705 39.5105 58.3832 38.7057 58.4971 37.8344C58.5535 37.585 58.5857 37.3309 58.5934 37.0753Z" fill="#E30613"/>
</g>
<defs>
<clipPath id="clip0_1487_14223">
<rect width="64" height="52.4629" fill="white"/>
</clipPath>
</defs>
</svg>
