<svg width="64" height="64" viewBox="0 0 64 64" fill="none" xmlns="http://www.w3.org/2000/svg">
<g clip-path="url(#clip0_1487_14263)">
<path d="M52.0653 0H11.9347C5.34333 0 0 5.34333 0 11.9347V52.0653C0 58.6567 5.34333 64 11.9347 64H52.0653C58.6567 64 64 58.6567 64 52.0653V11.9347C64 5.34333 58.6567 0 52.0653 0Z" fill="#E30613"/>
<path d="M10.2368 24.2311L31.1719 22.473C31.4152 22.4525 31.6601 22.4827 31.8912 22.5618C32.1222 22.6408 32.3343 22.767 32.5141 22.9322C32.6939 23.0975 32.8374 23.2982 32.9355 23.5218C33.0337 23.7454 33.0844 23.9869 33.0844 24.2311C33.0844 24.4753 33.0337 24.7168 32.9355 24.9404C32.8374 25.164 32.6939 25.3648 32.5141 25.53C32.3343 25.6953 32.1222 25.8214 31.8912 25.9005C31.6601 25.9795 31.4152 26.0097 31.1719 25.9892L10.2368 24.2311Z" fill="white"/>
<path d="M3.99832 39.6587L24.9375 37.9006C25.4017 37.8653 25.861 38.0149 26.2154 38.3168C26.5698 38.6187 26.7905 39.0484 26.8295 39.5123C26.8684 39.9762 26.7224 40.4367 26.4233 40.7934C26.1242 41.1502 25.6962 41.3742 25.2326 41.4168C25.1344 41.4241 25.0357 41.4241 24.9375 41.4168L3.99832 39.6587Z" fill="white"/>
<path d="M12.0386 31.6518L28.1731 29.8937C28.6397 29.843 29.1073 29.9797 29.473 30.2737C29.8388 30.5678 30.0727 30.9951 30.1235 31.4616C30.1742 31.9282 30.0375 32.3957 29.7434 32.7615C29.4494 33.1273 29.0221 33.3612 28.5555 33.4119C28.4284 33.4244 28.3003 33.4244 28.1731 33.4119L12.0386 31.6518Z" fill="white"/>
<path d="M54.4261 29.9998C53.4474 31.0113 52.2106 31.7357 50.8496 32.0946C52.0159 32.3322 53.06 32.9758 53.7964 33.9109C54.5074 34.8476 54.8796 35.9978 54.8521 37.1735C54.8503 37.5839 54.8135 37.9934 54.742 38.3975C54.3693 40.6142 53.3067 42.3564 51.5541 43.624C49.8016 44.8917 47.5274 45.5207 44.7316 45.511H31.7953L36.4275 19.3765H48.9585C51.329 19.3765 53.1702 19.8524 54.4822 20.8041C55.7942 21.7559 56.4488 23.1095 56.446 24.8648C56.4455 25.2994 56.4086 25.7331 56.3359 26.1615C56.108 27.6066 55.4413 28.9465 54.4261 29.9998ZM47.5496 36.8389C47.5654 36.57 47.5182 36.3011 47.4117 36.0536C47.3053 35.8061 47.1426 35.5869 46.9365 35.4134C46.5292 35.0795 45.93 34.9125 45.139 34.9125H40.9495L40.1348 39.6922H44.3597C46.1607 39.6922 47.2115 38.9136 47.5122 37.3564C47.5408 37.1855 47.5533 37.0122 47.5496 36.8389ZM48.6988 26.9408C48.6988 25.7549 47.9202 25.162 46.363 25.162H42.693L41.8763 29.7962H45.5463C47.3473 29.7962 48.3864 29.0294 48.6635 27.4957C48.6923 27.3122 48.7041 27.1265 48.6988 26.9408Z" fill="white"/>
</g>
<defs>
<clipPath id="clip0_1487_14263">
<rect width="64" height="64" fill="white"/>
</clipPath>
</defs>
</svg>
