<svg width="64" height="64" viewBox="0 0 64 64" fill="none" xmlns="http://www.w3.org/2000/svg">
<g clip-path="url(#clip0_1487_14191)">
<path d="M53.5818 0H10.4182C4.6644 0 0 4.6644 0 10.4182V53.5818C0 59.3356 4.6644 64 10.4182 64H53.5818C59.3356 64 64 59.3356 64 53.5818V10.4182C64 4.6644 59.3356 0 53.5818 0Z" fill="#FBBA00"/>
<path d="M10.8001 19.4173L21.3204 18.6128C21.4375 18.5932 21.5574 18.5993 21.6718 18.6308C21.7863 18.6622 21.8925 18.7182 21.9831 18.7949C22.0737 18.8716 22.1465 18.9671 22.1964 19.0747C22.2463 19.1824 22.2722 19.2997 22.2722 19.4184C22.2722 19.537 22.2463 19.6543 22.1964 19.762C22.1465 19.8696 22.0737 19.9651 21.9831 20.0418C21.8925 20.1185 21.7863 20.1745 21.6718 20.206C21.5574 20.2374 21.4375 20.2435 21.3204 20.2239L10.8001 19.4071V19.4173Z" fill="#E30613"/>
<path d="M7.66357 27.1708L18.1859 26.3663C18.3033 26.3457 18.4238 26.3511 18.5389 26.382C18.654 26.413 18.761 26.4687 18.8523 26.5454C18.9435 26.6221 19.0169 26.7178 19.0672 26.8258C19.1176 26.9339 19.1437 27.0516 19.1437 27.1708C19.1437 27.29 19.1176 27.4077 19.0672 27.5158C19.0169 27.6238 18.9435 27.7195 18.8523 27.7962C18.761 27.8729 18.654 27.9286 18.5389 27.9596C18.4238 27.9905 18.3033 27.9959 18.1859 27.9753L7.66357 27.1708Z" fill="#E30613"/>
<path d="M11.7047 23.1479L19.8073 22.3433C19.9247 22.3227 20.0452 22.3281 20.1603 22.3591C20.2754 22.39 20.3823 22.4458 20.4736 22.5224C20.5649 22.5991 20.6382 22.6948 20.6886 22.8029C20.7389 22.9109 20.765 23.0287 20.765 23.1479C20.765 23.267 20.7389 23.3848 20.6886 23.4928C20.6382 23.6009 20.5649 23.6966 20.4736 23.7733C20.3823 23.8499 20.2754 23.9057 20.1603 23.9366C20.0452 23.9676 19.9247 23.973 19.8073 23.9524L11.6985 23.1479H11.7047Z" fill="#E30613"/>
<path d="M12.9033 36.4901L23.4257 35.6856C23.5431 35.665 23.6636 35.6704 23.7787 35.7013C23.8938 35.7323 24.0007 35.7881 24.092 35.8647C24.1833 35.9414 24.2566 36.0371 24.307 36.1451C24.3573 36.2532 24.3834 36.3709 24.3834 36.4901C24.3834 36.6093 24.3573 36.7271 24.307 36.8351C24.2566 36.9432 24.1833 37.0389 24.092 37.1155C24.0007 37.1922 23.8938 37.248 23.7787 37.2789C23.6636 37.3099 23.5431 37.3152 23.4257 37.2947L12.9033 36.4901Z" fill="white"/>
<path d="M9.76888 44.2436L20.2912 43.439C20.4086 43.4184 20.5291 43.4238 20.6442 43.4548C20.7593 43.4857 20.8663 43.5415 20.9576 43.6181C21.0488 43.6948 21.1222 43.7905 21.1725 43.8986C21.2229 44.0066 21.249 44.1244 21.249 44.2436C21.249 44.3627 21.2229 44.4805 21.1725 44.5885C21.1222 44.6966 21.0488 44.7923 20.9576 44.869C20.8663 44.9456 20.7593 45.0014 20.6442 45.0323C20.5291 45.0633 20.4086 45.0687 20.2912 45.0481L9.76888 44.2436Z" fill="white"/>
<path d="M13.81 40.227L21.9167 39.4204C22.0337 39.4008 22.1536 39.4069 22.2681 39.4384C22.3825 39.4698 22.4887 39.5258 22.5793 39.6025C22.6699 39.6792 22.7427 39.7747 22.7926 39.8824C22.8426 39.99 22.8684 40.1073 22.8684 40.226C22.8684 40.3447 22.8426 40.4619 22.7926 40.5696C22.7427 40.6773 22.6699 40.7728 22.5793 40.8494C22.4887 40.9261 22.3825 40.9821 22.2681 41.0136C22.1536 41.045 22.0337 41.0512 21.9167 41.0315L13.81 40.227Z" fill="white"/>
<path d="M32.7739 22.36C32.2822 22.8685 31.6608 23.2328 30.977 23.4137C31.5629 23.5332 32.0874 23.8567 32.4574 24.3264C32.8145 24.795 33.0017 25.371 32.9883 25.96C32.9875 26.1654 32.969 26.3704 32.9332 26.5726C32.8594 27.0969 32.6792 27.6005 32.4035 28.0524C32.1278 28.5044 31.7626 28.8951 31.3302 29.2007C30.4481 29.8337 29.3053 30.1509 27.9017 30.1522H21.4L23.7299 17.0161H30.0172C31.2098 17.0161 32.1355 17.255 32.7943 17.7329C33.1163 17.9637 33.3755 18.2715 33.5481 18.6282C33.7207 18.9849 33.8013 19.379 33.7827 19.7748C33.7813 19.9938 33.7622 20.2124 33.7255 20.4283C33.6146 21.1547 33.2823 21.8293 32.7739 22.36ZM29.3189 25.7967C29.3268 25.6614 29.3031 25.5262 29.2496 25.4018C29.196 25.2773 29.1142 25.1671 29.0105 25.0799C28.7475 24.8949 28.4287 24.8062 28.108 24.8288H26.0027L25.5943 27.2322H27.718C28.6246 27.2322 29.1528 26.8408 29.3025 26.058C29.316 25.9716 29.3214 25.8841 29.3189 25.7967ZM29.8968 20.8285C29.8968 20.2322 29.5054 19.9341 28.7226 19.9341H26.8848L26.4764 22.264H28.3142C29.2209 22.264 29.7429 21.8788 29.8804 21.1083C29.8932 21.0156 29.8987 20.922 29.8968 20.8285Z" fill="#E30613"/>
<path d="M38.6712 19.7051L36.8334 30.158H33.1578L35.0201 19.7051H38.6712ZM35.6817 18.3084C35.5219 18.1739 35.3944 18.0051 35.3088 17.8145C35.2233 17.624 35.1818 17.4165 35.1875 17.2077C35.1868 16.8146 35.2995 16.4296 35.5122 16.0989C35.7352 15.7544 36.0433 15.4731 36.4066 15.2821C36.7991 15.073 37.2382 14.9669 37.6828 14.9738C38.1725 14.9463 38.6546 15.1029 39.0346 15.4128C39.1952 15.5525 39.3228 15.726 39.4083 15.9209C39.4937 16.1159 39.5349 16.3273 39.5288 16.54C39.5301 16.9303 39.4164 17.3124 39.2021 17.6386C38.9774 17.9806 38.6659 18.2568 38.2995 18.4391C37.9073 18.64 37.4721 18.7423 37.0315 18.7372C36.5441 18.7651 36.0636 18.6124 35.6817 18.3084Z" fill="#E30613"/>
<path d="M44.8196 20.0113C45.4169 19.7196 46.0744 19.5727 46.7391 19.5825C47.8281 19.5825 48.7069 19.9426 49.3753 20.6627C50.0437 21.3828 50.3758 22.3705 50.3718 23.6256C50.3688 24.0629 50.3313 24.4992 50.2595 24.9305C50.0878 25.9415 49.7142 26.9075 49.1609 27.7709C48.6749 28.5382 48.0144 29.1798 47.2332 29.6434C46.5134 30.069 45.6926 30.294 44.8564 30.2948C44.2414 30.3189 43.6318 30.1711 43.0962 29.868C42.6428 29.5997 42.2855 29.1952 42.0752 28.7122L40.9378 35.1588H37.2928L40.023 19.705H43.674L43.4147 21.1589C43.7891 20.6739 44.2697 20.2813 44.8196 20.0113ZM46.59 24.3893C46.6025 24.1711 46.5699 23.9526 46.4944 23.7475C46.4189 23.5423 46.302 23.3549 46.151 23.1968C46.0015 23.0534 45.8246 22.9415 45.631 22.8678C45.4373 22.7941 45.2308 22.7602 45.0238 22.768C44.4815 22.7722 43.9603 22.9782 43.5617 23.3459C43.1061 23.759 42.8122 24.3206 42.7327 24.9305C42.6974 25.1018 42.679 25.2762 42.6776 25.4512C42.6636 25.6743 42.6951 25.898 42.7702 26.1086C42.8453 26.3193 42.9625 26.5124 43.1145 26.6764C43.2627 26.8222 43.4392 26.9361 43.633 27.0113C43.8268 27.0864 44.034 27.1212 44.2417 27.1133C44.7892 27.1128 45.3158 26.9031 45.714 26.5273C46.2616 25.95 46.574 25.189 46.59 24.3934V24.3893Z" fill="#E30613"/>
<path d="M34.8322 38.8793C34.3406 39.3875 33.7191 39.7512 33.0353 39.9309C33.6184 40.0508 34.1405 40.3726 34.5096 40.8396C34.8656 41.3088 35.0526 41.8844 35.0405 42.4732C35.0398 42.6786 35.0214 42.8836 34.9854 43.0858C34.9109 43.6098 34.7304 44.1132 34.4548 44.565C34.1792 45.0169 33.8143 45.4078 33.3824 45.7138C32.5003 46.3469 31.3575 46.6634 29.9539 46.6634H23.4584L25.7862 33.5293H32.0837C33.2762 33.5293 34.2019 33.7682 34.8608 34.246C35.1827 34.4769 35.4417 34.7847 35.6139 35.1415C35.7862 35.4982 35.8664 35.8924 35.8471 36.288C35.8465 36.5063 35.8281 36.7241 35.792 36.9394C35.6791 37.6693 35.344 38.3467 34.8322 38.8793ZM31.3772 42.316C31.3847 42.1808 31.3607 42.0457 31.3072 41.9214C31.2537 41.797 31.1721 41.6868 31.0688 41.5992C30.8058 41.4143 30.4871 41.3256 30.1663 41.3481H28.061L27.6526 43.7515H29.7763C30.6829 43.7515 31.2104 43.3601 31.3588 42.5773C31.3731 42.491 31.3792 42.4035 31.3772 42.316ZM31.953 37.3417C31.953 36.7454 31.5623 36.4473 30.7809 36.4473H28.9431L28.5347 38.7772H30.3725C31.2792 38.7772 31.8006 38.392 31.9367 37.6214C31.9504 37.5289 31.9559 37.4352 31.953 37.3417Z" fill="white"/>
<path d="M40.7295 36.2227L38.8917 46.6756H35.2161L37.0805 36.2227H40.7295Z" fill="white"/>
<path d="M46.8779 36.523C47.4752 36.2313 48.1328 36.0844 48.7974 36.0942C49.8865 36.0942 50.7652 36.4543 51.4336 37.1744C52.102 37.8946 52.4342 38.8822 52.4301 40.1373C52.4271 40.5739 52.3895 41.0095 52.3178 41.4401C52.1458 42.4517 51.7722 43.4183 51.2192 44.2826C50.7319 45.0496 50.0708 45.6911 49.2895 46.1551C48.5705 46.581 47.7503 46.8059 46.9147 46.8065C46.2995 46.83 45.6899 46.6815 45.1545 46.3777C44.7007 46.1099 44.3433 45.7053 44.1335 45.2219L43.0022 51.6623H39.3512L42.065 36.2229H45.716L45.4547 37.6768C45.8347 37.1884 46.3216 36.7938 46.8779 36.523ZM48.6483 40.9011C48.661 40.6828 48.6286 40.4642 48.5531 40.259C48.4775 40.0539 48.3605 39.8665 48.2093 39.7085C48.0598 39.5651 47.883 39.4532 47.6893 39.3795C47.4957 39.3058 47.2892 39.2719 47.0821 39.2797C46.5397 39.2829 46.0181 39.489 45.6201 39.8576C45.1644 40.2698 44.8705 40.8309 44.791 41.4401C44.7559 41.6122 44.7374 41.7873 44.7359 41.9629C44.7215 42.1861 44.7529 42.4099 44.828 42.6205C44.9032 42.8312 45.0205 43.0243 45.1729 43.1881C45.321 43.3342 45.4973 43.4484 45.6911 43.5239C45.885 43.5994 46.0922 43.6345 46.3001 43.6271C46.848 43.6268 47.375 43.4163 47.7723 43.039C48.3195 42.4622 48.6319 41.7021 48.6483 40.9072V40.9011Z" fill="white"/>
</g>
<defs>
<clipPath id="clip0_1487_14191">
<rect width="64" height="64" fill="white"/>
</clipPath>
</defs>
</svg>
