<svg width="64" height="64" viewBox="0 0 64 64" fill="none" xmlns="http://www.w3.org/2000/svg">
<g clip-path="url(#clip0_1487_14271)">
<path d="M49.6049 0.543945H11.8097C5.60192 0.543945 0.56955 5.57632 0.56955 11.7841V49.5793C0.56955 55.787 5.60192 60.8194 11.8097 60.8194H49.6049C55.8126 60.8194 60.845 55.787 60.845 49.5793V11.7841C60.845 5.57632 55.8126 0.543945 49.6049 0.543945Z" fill="white"/>
<path d="M10.2106 23.3648L29.9293 21.709C30.1584 21.6897 30.3891 21.7181 30.6067 21.7926C30.8243 21.867 31.0241 21.9858 31.1934 22.1415C31.3627 22.2971 31.4979 22.4862 31.5903 22.6968C31.6828 22.9073 31.7305 23.1348 31.7305 23.3648C31.7305 23.5948 31.6828 23.8222 31.5903 24.0328C31.4979 24.2434 31.3627 24.4325 31.1934 24.5881C31.0241 24.7437 30.8243 24.8625 30.6067 24.937C30.3891 25.0114 30.1584 25.0399 29.9293 25.0206L10.2106 23.3648Z" fill="#E20613"/>
<path d="M4.33322 37.895L24.0519 36.2393C24.281 36.22 24.5117 36.2484 24.7293 36.3229C24.9469 36.3973 25.1467 36.5161 25.316 36.6717C25.4853 36.8274 25.6204 37.0165 25.7129 37.227C25.8054 37.4376 25.8531 37.6651 25.8531 37.895C25.8531 38.125 25.8054 38.3525 25.7129 38.5631C25.6204 38.7736 25.4853 38.9627 25.316 39.1184C25.1467 39.274 24.9469 39.3928 24.7293 39.4672C24.5117 39.5417 24.281 39.5701 24.0519 39.5508L4.33322 37.895Z" fill="#E20613"/>
<path d="M11.9075 30.356L27.1031 28.7002C27.3212 28.6753 27.542 28.6937 27.7529 28.7545C27.9638 28.8152 28.1607 28.917 28.3321 29.0541C28.5035 29.1911 28.6462 29.3607 28.7519 29.553C28.8576 29.7454 28.9242 29.9568 28.9479 30.175C28.9716 30.3931 28.952 30.6139 28.8901 30.8245C28.8283 31.035 28.7254 31.2313 28.5874 31.402C28.4495 31.5727 28.2791 31.7145 28.0862 31.8191C27.8933 31.9237 27.6816 31.9892 27.4633 32.0118C27.3435 32.0235 27.2229 32.0235 27.1031 32.0118L11.9075 30.356Z" fill="#E20613"/>
<path d="M51.8282 28.7981C50.9067 29.752 49.7409 30.4344 48.458 30.771C49.5578 30.9972 50.5419 31.6061 51.2352 32.4894C51.9049 33.3716 52.2554 34.4549 52.2295 35.5621C52.2279 35.9487 52.1932 36.3343 52.1257 36.7149C51.776 38.8026 50.7746 40.4434 49.1214 41.6373C47.4683 42.8311 45.3271 43.4248 42.698 43.4183H30.5106L34.8751 18.7891H46.6769C48.912 18.7891 50.6467 19.2366 51.8811 20.1317C53.1154 21.0268 53.7319 22.3016 53.7306 23.956C53.7301 24.3653 53.6954 24.7738 53.6269 25.1773C53.4134 26.5403 52.7854 27.8045 51.8282 28.7981ZM45.3519 35.2412C45.3669 34.9876 45.3226 34.734 45.2223 34.5006C45.1221 34.2671 44.9688 34.0603 44.7745 33.8966C44.3831 33.5815 43.8253 33.4249 43.0816 33.4249H39.1437L38.3745 37.9264H42.3555C44.0517 37.9264 45.0414 37.1931 45.3245 35.7266C45.3479 35.5659 45.357 35.4035 45.3519 35.2412ZM46.4342 25.9171C46.4342 24.8002 45.7009 24.2418 44.2343 24.2418H40.776L40.0088 28.6063H43.4652C45.1614 28.6063 46.14 27.8848 46.401 26.4417C46.428 26.2682 46.4391 26.0926 46.4342 25.9171Z" fill="#E20613"/>
</g>
<defs>
<clipPath id="clip0_1487_14271">
<rect width="64" height="64" fill="white"/>
</clipPath>
</defs>
</svg>
